<?xml version="1.0" standalone="no"?>
<!DOCTYPE svg PUBLIC "-//W3C//DTD SVG 1.1//EN" "http://www.w3.org/Graphics/SVG/1.1/DTD/svg11.dtd" >
<svg xmlns="http://www.w3.org/2000/svg">
<metadata>Generated by IcoMoon</metadata>
<defs>
<font id="icomoon" horiz-adv-x="1024">
<font-face units-per-em="1024" ascent="960" descent="-64" />
<missing-glyph horiz-adv-x="1024" />
<glyph unicode="&#x20;" horiz-adv-x="512" d="" />
<glyph unicode="&#xe900;" glyph-name="add-circle-1" d="M255.787 66.901c-4.565 0-9.045 0.981-13.269 2.859-90.752 41.557-163.584 114.389-205.099 205.099-46.251 101.035-50.389 214.016-11.691 318.165 38.741 104.149 115.712 186.965 216.747 233.259 4.224 1.92 8.704 2.901 13.312 2.901 12.459 0 23.893-7.339 29.099-18.688 7.339-16.043 0.256-35.072-15.787-42.411-85.504-39.125-150.613-109.227-183.381-197.376s-29.269-183.765 9.899-269.227c35.157-76.757 96.768-138.368 173.525-173.483 16.043-7.381 23.125-26.411 15.787-42.411-5.205-11.349-16.64-18.688-29.141-18.688zM607.787 32c-229.376 0-416 186.624-416 416s186.624 416 416 416c229.376 0 416-186.624 416-416s-186.581-416-416-416zM607.787 800c-194.091 0-352-157.909-352-352s157.909-352 352-352c194.091 0 352 157.909 352 352s-157.909 352-352 352zM607.787 224c-17.664 0-32 14.336-32 32v160h-160c-17.664 0-32 14.336-32 32s14.336 32 32 32h160v160c0 17.664 14.336 32 32 32s32-14.336 32-32v-160h160c17.664 0 32-14.336 32-32s-14.336-32-32-32h-160v-160c0-17.664-14.336-32-32-32z" />
<glyph unicode="&#xe901;" glyph-name="add-circle" d="M512 224c-17.664 0-32 14.336-32 32v160h-160c-17.664 0-32 14.336-32 32s14.336 32 32 32h160v160c0 17.664 14.336 32 32 32s32-14.336 32-32v-160h160c17.664 0 32-14.336 32-32s-14.336-32-32-32h-160v-160c0-17.664-14.336-32-32-32zM512-64c-282.325 0-512 229.675-512 512s229.675 512 512 512c282.325 0 512-229.675 512-512s-229.675-512-512-512zM512 896c-247.040 0-448-200.96-448-448s200.96-448 448-448c247.040 0 448 200.96 448 448s-200.96 448-448 448z" />
<glyph unicode="&#xe902;" glyph-name="alert-circle" d="M511.275 960v0c-136.806-2.24-267.236-58.228-363.093-155.861v0c-96.911-96.484-150.404-228.238-148.181-364.971v0.003c-0.332-277.562 224.407-502.839 501.969-503.172 0.498-0.001 0.996 0 1.495 0h9.131c284.939 2.93 513.728 235.973 511.407 520.917v0 0.005c0.649 277.255-223.584 502.541-500.838 503.189-3.964 0.009-7.928-0.028-11.892-0.113zM448 254.208v0c-1.278 34.757 25.863 63.969 60.62 65.247 0.401 0.015 0.803 0.026 1.204 0.033h1.152c34.988-0.067 63.675-27.757 64.981-62.72v0c1.301-34.733-25.801-63.944-60.534-65.245-0.43-0.016-0.86-0.028-1.29-0.035h-1.152c-34.97 0.111-63.632 27.776-64.981 62.72zM469.333 426.667v256c0 23.564 19.103 42.667 42.667 42.667s42.667-19.103 42.667-42.667c0 0 0 0 0 0v-256c0-23.564-19.103-42.667-42.667-42.667s-42.667 19.103-42.667 42.667z" />
<glyph unicode="&#xe903;" glyph-name="alert-diamond" d="M981.333 508.331l-409.003 409.003c-33.323 33.313-87.339 33.313-120.661 0l-409.003-409.045c-33.313-33.323-33.313-87.339 0-120.661v0l409.003-408.96c33.323-33.313 87.339-33.313 120.661 0l409.003 408.96c33.331 33.318 33.342 87.348 0.024 120.68-0.008 0.008-0.016 0.016-0.024 0.024zM472.235 686.208v0c0 23.564 19.103 42.667 42.667 42.667s42.667-19.103 42.667-42.667c0 0 0 0 0 0v-256c0-23.564-19.103-42.667-42.667-42.667s-42.667 19.103-42.667 42.667zM517.077 195.115h-1.195c-34.953 0.134-63.59 27.793-64.939 62.72v0c-1.301 34.733 25.8 63.944 60.533 65.245 0.416 0.016 0.832 0.027 1.249 0.034h1.195c34.971-0.090 63.633-27.773 64.939-62.72v0c1.301-34.733-25.8-63.944-60.533-65.245-0.416-0.016-0.832-0.027-1.249-0.034z" />
<glyph unicode="&#xe904;" glyph-name="alert-triangle" d="M986.411 106.667l-398.805 761.6c-21.875 41.744-73.449 57.85-115.193 35.975-15.371-8.055-27.921-20.605-35.975-35.975l-398.848-761.6c-21.868-41.748-5.751-93.318 35.997-115.186 12.221-6.401 25.812-9.744 39.609-9.742h797.611c47.128-0.008 85.34 38.191 85.347 85.319 0.002 13.796-3.341 27.387-9.742 39.609zM469.333 600.619v0c0 23.564 19.103 42.667 42.667 42.667s42.667-19.103 42.667-42.667c0 0 0 0 0 0v-256c0-23.564-19.103-42.667-42.667-42.667s-42.667 19.103-42.667 42.667zM514.133 109.525h-1.195c-34.962 0.112-63.612 27.783-64.939 62.72v0c-1.278 34.757 25.862 63.97 60.619 65.248 0.387 0.014 0.775 0.025 1.162 0.032h1.195c34.956-0.042 63.651-27.663 65.024-62.592v0c1.371-34.73-25.671-63.996-60.401-65.367-0.488-0.019-0.977-0.033-1.465-0.041z" />
<glyph unicode="&#xe905;" glyph-name="arrow-button-up-3" d="M1011.2 397.739l-469.333 466.731c-16.637 16.515-43.481 16.515-60.117 0l-468.949-467.072c-8.145-8.050-12.751-19.012-12.8-30.464v-305.058c0-23.564 19.103-42.667 42.667-42.667 11.331 0 22.198 4.508 30.202 12.529l431.535 432.179c4.127 4.171 10.854 4.206 15.024 0.080 0.027-0.026 0.053-0.053 0.080-0.080l431.573-431.915c16.618-16.707 43.633-16.78 60.34-0.162 8.081 8.037 12.61 18.973 12.578 30.37v305.28c-0.115 11.376-4.715 22.247-12.8 30.251z" />
<glyph unicode="&#xe906;" glyph-name="arrow-button-up" d="M1013.376 243.499l-468.651 532.096c-17.384 18.133-46.175 18.74-64.308 1.356-0.462-0.442-0.914-0.895-1.356-1.356l-468.437-532.096c-15.439-17.394-13.854-44.011 3.541-59.45 0.337-0.299 0.679-0.593 1.025-0.881l78.933-66.432c18.314-15.44 45.627-13.331 61.355 4.736l348.373 403.328c3.842 4.465 10.577 4.97 15.043 1.128 0.404-0.347 0.781-0.724 1.128-1.128l348.501-403.2c7.584-8.731 18.329-14.089 29.867-14.891v0c11.478-1.023 22.881 2.639 31.616 10.155l78.976 66.475c17.886 14.94 20.273 41.551 5.333 59.437-0.252 0.301-0.508 0.599-0.768 0.893z" />
<glyph unicode="&#xe907;" glyph-name="arrow-left-1" d="M192 448v-0.001c-0.035 28.233 12.091 55.113 33.279 73.771l475.819 418.603c33.34 27.976 83.047 23.628 111.023-9.713 27.060-32.249 23.995-80.071-6.959-108.602l-416.085-366.037c-4.43-3.883-4.873-10.622-0.99-15.052 0.308-0.351 0.639-0.682 0.99-0.99l416.085-366.037c33.34-27.976 37.689-77.683 9.713-111.023s-77.683-37.689-111.023-9.713c-0.936 0.786-1.854 1.593-2.753 2.422l-475.648 418.475c-21.24 18.69-33.424 45.606-33.451 73.899z" />
<glyph unicode="&#xe908;" glyph-name="arrow-rectangle-up-2" d="M960 960h-896c-35.346 0-64-28.654-64-64 0 0 0 0 0 0v-896c0-35.346 28.654-64 64-64h896c35.346 0 64 28.654 64 64v896c0 35.346-28.654 64-64 64zM789.333 398.464v-136.534c0.011-11.782-9.532-21.342-21.314-21.353-5.367-0.005-10.539 2.013-14.484 5.652l-234.453 216.32c-4.093 3.748-10.371 3.748-14.464 0l-233.984-216.15c-8.661-7.988-22.157-7.443-30.145 1.217-3.629 3.934-5.646 9.089-5.652 14.441v134.438c0 5.647 2.239 11.064 6.226 15.063l256 256c8.326 8.3 21.797 8.3 30.123 0l256-254.080c3.947-4 6.156-9.396 6.147-15.015z" />
<glyph unicode="&#xe909;" glyph-name="arrow-rectangle-up" d="M960 960h-896c-35.346 0-64-28.654-64-64 0 0 0 0 0 0v-896c0-35.346 28.654-64 64-64h896c35.346 0 64 28.654 64 64v896c0 35.346-28.654 64-64 64zM805.717 303.616v0c-20.839-20.811-54.596-20.811-75.435 0l-210.731 210.773c-4.187 4.132-10.917 4.132-15.104 0l-210.731-210.773c-20.831-20.831-54.604-20.831-75.435 0s-20.831 54.604 0 75.435l240.939 240.896c29.124 29.161 76.374 29.19 105.534 0.066 0.022-0.022 0.044-0.044 0.066-0.066l240.896-240.896c20.811-20.839 20.811-54.596 0-75.435z" />
<glyph unicode="&#xe90a;" glyph-name="arrow-right-1" d="M832 448v0.001c0.035-28.233-12.091-55.113-33.279-73.771l-475.819-418.603c-33.34-27.976-83.047-23.628-111.023 9.713-27.060 32.249-23.995 80.071 6.96 108.602l416.085 366.037c4.43 3.883 4.873 10.622 0.99 15.052-0.308 0.351-0.639 0.682-0.99 0.99l-416.085 366.037c-32.003 29.497-34.035 79.352-4.538 111.355 28.531 30.955 76.353 34.019 108.602 6.96l475.648-418.475c21.24-18.69 33.424-45.606 33.451-73.899z" />
<glyph unicode="&#xe90b;" glyph-name="Caret-Square-UP" d="M64 96v704c0 53.020 42.98 96 96 96h704c53.020 0 96-42.98 96-96v-704c0-53.020-42.98-96-96-96h-704c-53.020 0-96 42.98-96 96zM775.030 376.97l-246.060 246.060c-9.372 9.372-24.568 9.372-33.942 0l-246.058-246.060c-15.12-15.12-4.412-40.97 16.97-40.97h492.118c21.382 0 32.090 25.852 16.972 40.97z" />
<glyph unicode="&#xe90c;" glyph-name="Caret-UP" d="M769.324 256h-514.648c-35.636 0-53.482 43.086-28.284 68.284l257.324 257.324c15.62 15.62 40.948 15.62 56.568 0l257.324-257.324c25.2-25.198 7.352-68.284-28.284-68.284z" />
<glyph unicode="&#xe90d;" glyph-name="circle-add" d="M512 917.333c-259.2 0-469.333-210.123-469.333-469.333s210.133-469.333 469.333-469.333c259.2 0 469.333 210.123 469.333 469.333s-210.133 469.333-469.333 469.333zM512 64c-212.075 0-384 171.925-384 384s171.925 384 384 384c212.075 0 384-171.925 384-384s-171.925-384-384-384zM682.667 490.667h-128v128c0 23.563-19.104 42.667-42.667 42.667s-42.667-19.104-42.667-42.667v-128h-128c-23.563 0-42.667-19.104-42.667-42.667s19.104-42.667 42.667-42.667h128v-128c0-23.563 19.104-42.667 42.667-42.667s42.667 19.104 42.667 42.667v128h128c23.563 0 42.667 19.104 42.667 42.667s-19.104 42.667-42.667 42.667z" />
<glyph unicode="&#xe90f;" glyph-name="cloud-upload" d="M1024 515.712v-0.003c-0.154 67.043-27.423 131.172-75.604 177.793v0c-39.885 38.643-91.774 62.503-147.072 67.627v0c-3.378 0.308-6.406 2.21-8.149 5.12v0c-92.918 155.407-294.226 206.065-449.634 113.146-77.58-46.385-132.567-122.741-151.967-211.023v0c-0.959-4.689-4.913-8.173-9.685-8.533v0c-102.414-7.314-181.792-92.481-181.89-195.156v0c-2.118-50.982 16.974-100.564 52.736-136.96v0c42.506-37.517 97.121-58.438 153.813-58.923v0c23.564 0.353 42.38 19.743 42.027 43.307s-19.743 42.38-43.307 42.027v0c-34.007-0.231-66.94 11.899-92.672 34.133v0c-19.338 20.561-29.22 48.258-27.264 76.416v0.001c-0.1 33.259 14.866 64.775 40.704 85.717v0c25.877 21.003 59.826 29.26 92.459 22.485v0c23.079-4.756 45.644 10.098 50.4 33.177 0.41 1.989 0.677 4.006 0.8 6.033v0c7.895 133.753 122.723 235.781 256.476 227.886 88.639-5.232 167.339-58.47 205.177-138.799v0c6.97-15.715 22.994-25.421 40.149-24.32v0c43.747 2.021 86.367-14.221 117.674-44.843v0c31.753-30.339 49.648-72.392 49.493-116.309v0.001c-0.595-83.363-63.77-152.951-146.688-161.579v0c-23.376-2.971-39.917-24.33-36.946-47.706 2.721-21.408 20.998-37.413 42.578-37.286v0c1.87 0 3.737 0.129 5.589 0.384v0c125.609 13.753 220.745 119.827 220.8 246.187zM542.165 576.469v0c-16.661 16.656-43.669 16.656-60.331 0l-149.333-149.333c-16.754-16.57-16.904-43.584-0.334-60.339 8.054-8.144 19.045-12.707 30.499-12.664h74.667c5.867 0.024 10.643-4.714 10.667-10.581 0-0.029 0-0.057 0-0.086v-309.333c0-35.346 28.654-64 64-64s64 28.654 64 64v309.333c-0.024 5.867 4.714 10.643 10.581 10.667 0.029 0 0.057 0 0.086 0h74.667c23.564 0.005 42.663 19.112 42.658 42.676-0.002 11.311-4.496 22.157-12.492 30.156z" />
<glyph unicode="&#xe910;" glyph-name="cog" d="M347.989-63.488c-28.843 0-56.448 10.667-77.739 30.037-25.515 23.211-39.253 56.32-37.675 90.795l3.072 59.904c1.451 28.373-20.437 52.651-48.811 54.144-0.896 0.043-1.792 0.085-2.645 0.085-0.896 0-1.749 0-2.645-0.085l-59.776-3.029c-2.005-0.085-4.096-0.171-6.144-0.171-28.501 0-55.936 10.539-77.184 29.696-22.912 20.651-36.437 48.981-38.059 79.829-1.835 34.859 11.989 68.267 37.845 91.691l44.459 40.107c10.197 9.216 16.213 21.888 16.939 35.669 0.683 13.781-4.011 27.008-13.227 37.248-1.152 1.28-2.389 2.517-3.712 3.712l-44.459 40.363c-22.869 20.736-36.267 49.109-37.76 79.957-1.536 30.805 9.088 60.373 29.824 83.243 21.845 24.107 52.992 37.931 85.419 37.931 1.877 0 3.797-0.043 5.675-0.128l59.819-3.029c0.896-0.085 2.688-0.085 2.688-0.085 27.477 0 50.091 21.461 51.541 48.811 0.085 1.792 0.085 3.627 0 5.419l-2.859 59.989c-2.987 63.701 46.379 117.931 110.037 120.917 1.835 0.085 3.669 0.128 5.504 0.128 32.427 0 63.531-13.781 85.376-37.803l40.149-44.331c9.259-10.283 21.888-16.299 35.627-17.024 0.939-0.043 1.877-0.085 2.816-0.085 12.843 0 24.704 4.565 34.347 13.227 1.323 1.195 2.56 2.432 3.712 3.755l40.533 44.459c20.608 22.827 48.981 36.267 79.829 37.845 1.963 0.085 3.883 0.128 5.803 0.128 28.715 0 56.277-10.581 77.568-29.824 25.899-23.381 39.723-56.789 37.931-91.648l-3.029-59.733c-1.408-28.373 20.523-52.608 48.896-54.059 0.896-0.043 1.749-0.085 2.603-0.085 0.811 0 1.621 0 2.432 0.043l59.733 3.029c2.005 0.085 3.925 0.128 5.888 0.128 28.672 0 56.149-10.624 77.44-29.952 22.869-20.736 36.309-49.152 37.845-79.957 1.707-34.773-12.117-68.096-37.931-91.435l-44.459-40.107c-10.197-9.216-16.213-21.888-16.896-35.669-0.725-13.781 4.011-27.008 13.227-37.205 1.195-1.323 2.389-2.56 3.669-3.669l44.459-40.149c22.912-20.693 36.395-49.067 37.973-79.915s-8.96-60.459-29.653-83.328c-21.888-24.192-53.205-38.059-85.973-38.059 0 0 0 0 0 0-1.835 0-3.712 0.043-5.589 0.128l-59.819 3.029c-0.939 0.043-1.877 0.085-2.816 0.085-12.885 0-24.747-4.608-34.389-13.269-10.24-9.216-16.256-21.845-16.939-35.627-0.085-1.749-0.085-3.541 0-5.333l3.029-59.733c1.365-30.933-9.344-60.501-30.208-83.328s-49.323-36.139-80.128-37.504c-1.835-0.085-3.755-0.128-5.675-0.128-32 0-62.891 13.696-84.736 37.547l-40.277 44.544c-9.771 10.795-23.723 16.981-38.357 16.981-12.8 0-25.045-4.693-34.517-13.269-1.28-1.152-2.56-2.389-3.712-3.712l-40.363-44.459c-21.845-23.936-53.035-37.675-85.547-37.675zM184.192 235.435c1.963 0 3.925-0.043 5.888-0.171 63.659-3.285 112.768-57.728 109.483-121.344l-3.072-59.733c-0.683-15.232 5.419-29.995 16.811-40.363 9.643-8.789 21.632-13.397 34.645-13.397 0.853 0 1.664 0 2.517 0.043 13.739 0.64 26.453 6.613 35.712 16.811l40.277 44.373c2.56 2.859 5.333 5.632 8.235 8.277 21.291 19.2 48.768 29.781 77.44 29.781 32.683 0 63.957-13.867 85.845-38.059l40.149-44.416c9.643-10.539 23.552-16.597 38.229-16.597l2.091 0.043c28.331 1.28 50.432 25.429 49.152 53.845l-3.029 59.52c-0.213 3.925-0.213 7.893 0 11.861 1.579 30.805 15.061 59.179 37.973 79.829 21.291 19.2 48.683 29.781 77.184 29.781 2.048 0 4.096-0.043 6.187-0.171l59.691-3.029c1.024-0.043 2.005-0.085 2.944-0.085 14.336 0 28.16 6.187 37.931 17.024 9.259 10.24 13.952 23.467 13.269 37.205-0.683 13.781-6.699 26.411-16.939 35.669l-44.459 40.107c-2.901 2.603-5.675 5.376-8.32 8.32-42.709 47.275-38.997 120.533 8.32 163.285l44.459 40.107c11.52 10.411 17.664 25.259 16.896 40.789-0.683 13.781-6.656 26.453-16.896 35.712-9.515 8.619-21.76 13.355-34.517 13.355-0.896 0-1.749-0.043-2.645-0.085l-59.691-3.029c-1.877-0.085-3.797-0.128-5.675-0.128-1.963 0-3.925 0.043-5.845 0.171-63.616 3.2-112.768 57.557-109.568 121.173l3.029 59.776c0.811 15.573-5.376 30.464-16.939 40.875-9.643 8.747-21.461 13.312-34.219 13.312-0.939 0-1.92-0.043-2.901-0.085-13.824-0.683-26.496-6.699-35.712-16.939l-40.448-44.373c-2.517-2.816-5.376-5.675-8.363-8.363-21.248-19.157-48.725-29.696-77.397-29.696-1.963 0-3.925 0.043-5.888 0.128-30.848 1.621-59.179 15.104-79.829 38.016l-40.064 44.288c-9.728 10.667-23.637 16.811-38.144 16.811-0.811 0-1.621 0-2.432-0.043-28.373-1.323-50.389-25.557-49.067-53.973l2.859-59.733c0.213-3.883 0.213-7.979 0-12.075-3.243-61.355-53.931-109.44-115.413-109.44-2.005 0-4.011 0.043-6.016 0.171l-59.691 2.987c-0.768 0.043-1.621 0.085-2.432 0.085-14.464 0-28.373-6.187-38.101-16.896-9.259-10.197-13.995-23.381-13.312-37.12s6.656-26.411 16.853-35.669l44.416-40.32c2.859-2.603 5.632-5.333 8.235-8.277 42.709-47.317 38.997-120.576-8.32-163.285l-44.416-40.107c-11.52-10.411-17.664-25.344-16.853-40.875 0.725-13.739 6.741-26.411 16.981-35.627 9.472-8.533 21.717-13.227 34.432-13.227 0.896 0 1.835 0 2.731 0.085l59.776 3.029c2.005 0.043 3.968 0.085 5.973 0.085zM512 224c-123.52 0-224 100.48-224 224s100.48 224 224 224 224-100.48 224-224-100.48-224-224-224zM512 608c-88.235 0-160-71.765-160-160s71.765-160 160-160 160 71.765 160 160-71.765 160-160 160z" />
<glyph unicode="&#xe911;" glyph-name="Cursor-Information-Alternate" d="M424.917 766.379v0c-223.86 0-405.333-181.474-405.333-405.333s181.474-405.333 405.333-405.333c223.86 0 405.333 181.474 405.333 405.333v-0.004c-0.256 223.752-181.577 405.076-405.329 405.338zM424.917 41.045v0c-176.731 0-320 143.269-320 320s143.269 320 320 320c176.731 0 320-143.269 320-320v0.001c-0.211-176.643-143.356-319.789-320-320zM998.101 934.4v0c-5.099 5.108-12.436 7.292-19.499 5.803l-375.893-79.403c-11.527-2.438-18.895-13.759-16.457-25.286 1.506-7.118 6.535-12.978 13.342-15.546v0c130.955-49.716 234.358-153.12 284.075-284.075v0c4.15-11.027 16.453-16.602 27.48-12.452 6.805 2.561 11.838 8.412 13.352 15.524l79.403 375.936c1.489 7.063-0.694 14.399-5.803 19.499zM520.917 201.045h-32c-5.891 0-10.667 4.776-10.667 10.667 0 0 0 0 0 0v160c0 47.128-38.205 85.333-85.333 85.333h-42.667c-23.564 0-42.667-19.103-42.667-42.667s19.103-42.667 42.667-42.667h32c5.867 0.024 10.643-4.714 10.667-10.581 0-0.029 0-0.057 0-0.086v-149.333c0.024-5.867-4.714-10.643-10.581-10.667-0.029 0-0.057 0-0.086 0h-32c-23.564 0-42.667-19.103-42.667-42.667s19.103-42.667 42.667-42.667h170.667c23.564 0 42.667 19.103 42.667 42.667s-19.103 42.667-42.667 42.667zM480.841 598.3c24.994-24.994 24.994-65.516 0-90.51s-65.516-24.994-90.51 0c-24.994 24.994-24.994 65.516 0 90.51s65.516 24.994 90.51 0z" />
<glyph unicode="&#xe912;" glyph-name="Cursor-Question-Alternate" d="M424.917 766.379v0c-223.86 0-405.333-181.474-405.333-405.333s181.474-405.333 405.333-405.333c223.86 0 405.333 181.474 405.333 405.333v-0.004c-0.256 223.752-181.577 405.076-405.329 405.338zM424.917 41.045v0c-176.731 0-320 143.269-320 320s143.269 320 320 320c176.731 0 320-143.269 320-320v0.001c-0.211-176.643-143.356-319.789-320-320zM998.101 934.4v0c-5.099 5.108-12.436 7.292-19.499 5.803l-375.893-79.403c-11.527-2.438-18.895-13.759-16.457-25.286 1.506-7.118 6.535-12.978 13.342-15.546v0c130.955-49.716 234.358-153.12 284.075-284.075v0c4.15-11.027 16.453-16.602 27.48-12.452 6.805 2.561 11.838 8.412 13.352 15.524l79.403 375.936c1.489 7.063-0.694 14.399-5.803 19.499zM470.174 192.969c24.994-24.994 24.994-65.516 0-90.51s-65.516-24.994-90.51 0c-24.994 24.994-24.994 65.516 0 90.51s65.516 24.994 90.51 0zM424.917 617.045v0c-84.455-0.094-152.89-68.547-152.96-153.003v0c0-23.564 19.103-42.667 42.667-42.667s42.667 19.103 42.667 42.667v-0.010c0 37.373 30.297 67.669 67.669 67.669s67.669-30.297 67.669-67.669c0-26.91-15.945-51.263-40.61-62.023v0c-42.406-18.508-69.802-60.398-69.76-106.667v0c0-23.564 19.103-42.667 42.667-42.667s42.667 19.103 42.667 42.667v0c0.004 12.306 7.312 23.436 18.603 28.331v0c77.501 33.736 112.979 123.91 79.243 201.411-24.338 55.91-79.543 92.039-140.521 91.961z" />
<glyph unicode="&#xe913;" glyph-name="cursor-information" d="M416-63.872c-229.376 0-416 186.624-416 416s186.624 416 416 416 416-186.624 416-416-186.624-416-416-416zM416 704.128c-194.091 0-352-157.909-352-352s157.909-352 352-352 352 157.909 352 352-157.909 352-352 352zM992 576.128c-8.533 0-16.597 3.328-22.613 9.387l-320 320c-9.173 9.173-11.904 22.869-6.955 34.901 4.992 11.989 16.597 19.755 29.568 19.755h320c17.664 0 32-14.336 32-32v-320c0-13.013-7.765-24.619-19.755-29.568-3.883-1.664-8.021-2.475-12.245-2.475zM960 685.355v210.773h-210.731l210.731-210.773zM352 128.128c-17.664 0-32 14.336-32 32s14.336 32 32 32h32v192h-32c-17.664 0-32 14.336-32 32s14.336 32 32 32h64c17.664 0 32-14.336 32-32v-224h32c17.664 0 32-14.336 32-32s-14.336-32-32-32h-128zM464 560c0-26.51-21.49-48-48-48s-48 21.49-48 48c0 26.51 21.49 48 48 48s48-21.49 48-48z" />
<glyph unicode="&#xe914;" glyph-name="cursor-question" d="M416-63.872c-229.376 0-416 186.624-416 416s186.624 416 416 416 416-186.624 416-416-186.624-416-416-416zM416 704.128c-194.091 0-352-157.909-352-352s157.909-352 352-352 352 157.909 352 352-157.909 352-352 352zM992 576.128c-8.533 0-16.597 3.328-22.613 9.387l-320 320c-9.173 9.173-11.904 22.869-6.955 34.901 4.992 11.989 16.597 19.755 29.568 19.755h320c17.664 0 32-14.336 32-32v-320c0-13.013-7.765-24.619-19.755-29.568-3.883-1.664-8.021-2.475-12.245-2.475zM960 685.355v210.773h-210.731l210.731-210.773zM464 144.128c0-26.51-21.49-48-48-48s-48 21.49-48 48c0 26.51 21.49 48 48 48s48-21.49 48-48zM416 240.128c-17.664 0-32 14.336-32 32v26.923c0 40.619 25.728 76.971 64 90.496 38.229 13.525 63.957 49.877 64 90.453 0 25.643-9.941 49.749-28.075 67.883s-42.24 28.117-67.883 28.16c-52.949 0-96-43.051-96.043-95.957 0-17.621-14.379-32-32-32-17.664 0-32 14.379-32 32 0 42.752 16.683 82.901 46.933 113.109 30.208 30.165 70.357 46.805 113.067 46.805 42.837 0 82.987-16.683 113.195-46.933s46.805-70.443 46.805-113.152c-0.043-67.627-42.923-128.213-106.667-150.741-12.757-4.523-21.333-16.64-21.333-30.165v-26.923c0-17.621-14.336-31.957-32-31.957z" />
<glyph unicode="&#xe915;" glyph-name="e-commerce-cart" d="M319.957 383.872c-13.781 0-25.984 8.789-30.336 21.888l-64 192c-3.285 9.728-1.664 20.48 4.352 28.843 5.973 8.32 15.701 13.269 25.941 13.269h353.792l31.573 105.216c4.011 13.44 16.597 22.827 30.677 22.827 3.115 0 6.229-0.469 9.216-1.365 8.149-2.432 14.891-7.936 18.944-15.445 4.053-7.552 4.907-16.171 2.475-24.363l-96-320c-4.096-13.653-16.427-22.827-30.635-22.827h-256zM552.107 447.872l38.4 128h-290.176l42.667-128h209.109zM383.957 303.872c0-26.51-21.49-48-48-48s-48 21.49-48 48c0 26.51 21.49 48 48 48s48-21.49 48-48zM607.915 303.872c0-26.51-21.49-48-48-48s-48 21.49-48 48c0 26.51 21.49 48 48 48s48-21.49 48-48zM448.128 63.659c-65.109 0-128.469 14.080-188.288 41.899-108.416 50.347-190.763 139.947-231.808 252.203-41.003 112.085-35.797 233.6 14.592 342.144 50.432 108.587 139.947 190.933 252.032 231.936 49.451 18.091 100.992 27.264 153.259 27.264 187.392 0 356.523-118.101 420.779-293.888 34.176-93.483 36.096-197.12 5.376-291.797-4.309-13.227-16.512-22.144-30.421-22.144-3.328 0-6.656 0.512-9.856 1.536-8.149 2.645-14.763 8.277-18.688 15.915s-4.565 16.299-1.92 24.405c26.325 81.152 24.661 169.941-4.651 250.069-55.083 150.656-200.021 251.861-360.661 251.861-44.757 0-88.96-7.851-131.328-23.339-95.957-35.157-172.672-105.728-215.893-198.741s-47.659-197.163-12.544-293.248c35.2-96.213 105.728-173.013 198.656-216.149 51.285-23.851 105.6-35.925 161.323-35.925 44.843 0 89.259 7.936 131.968 23.552 3.584 1.323 7.253 1.963 11.008 1.963 13.355 0 25.472-8.448 30.080-20.992 6.059-16.597-2.475-34.987-19.029-41.045-49.835-18.219-101.675-27.477-153.984-27.477zM991.915-64.128c-8.533 0-16.597 3.328-22.613 9.387l-84.181 84.181-46.805-77.995c-5.76-9.6-16.256-15.531-27.435-15.531-0.939 0-1.835 0.043-2.816 0.128-12.075 1.067-22.699 9.045-27.051 20.395l-113.109 294.187c-4.523 11.776-1.707 25.173 7.253 34.091 6.016 6.059 14.037 9.387 22.613 9.387 3.925 0 7.808-0.725 11.52-2.133l294.144-113.152c11.307-4.352 19.328-15.019 20.395-27.093 1.067-12.117-4.992-23.979-15.445-30.208l-77.995-46.805 84.181-84.181c6.059-6.059 9.387-14.080 9.387-22.613s-3.328-16.597-9.387-22.613-14.080-9.429-22.656-9.429zM817.237 40.619l34.133 56.875c1.195 2.005 2.645 3.925 4.309 5.675 0.171 0.171 0.939 0.939 1.152 1.109 1.707 1.621 3.541 3.029 5.504 4.181l56.875 34.133-165.717 63.744 63.744-165.717z" />
<glyph unicode="&#xe917;" glyph-name="house-3" d="M193.152 12.245c-17.664 0-32 14.336-32 32v434.816l-73.344-73.429c-6.059-6.059-14.080-9.387-22.656-9.387-8.533 0-16.555 3.328-22.613 9.344-6.059 6.059-9.387 14.080-9.387 22.613s3.328 16.597 9.387 22.613l402.56 402.901c18.176 18.048 42.197 27.989 67.712 27.989 25.984-0.085 50.048-10.155 68.139-28.331l402.859-402.517c12.459-12.459 12.501-32.768 0-45.269-6.059-6.059-14.080-9.387-22.656-9.387-8.533 0-16.555 3.328-22.613 9.344l-73.387 73.344v-434.688c0-17.664-14.336-32-32-32h-640zM801.152 76.245v466.603l-265.515 265.301c-6.101 6.144-14.165 9.557-22.699 9.557-8.619 0-16.597-3.285-22.656-9.301l-265.131-265.301v-466.859h128v160c0 88.235 71.765 160 160 160s160-71.765 160-160v-160h128zM609.152 76.245v160c0 52.949-43.093 96-96 96s-96-43.051-96-96v-160h192zM513.152 460.245c-61.739 0-112 50.261-112 112s50.261 112 112 112 112-50.261 112-112-50.261-112-112-112zM513.152 620.245c-26.453 0-48-21.547-48-48s21.547-48 48-48c26.453 0 48 21.547 48 48s-21.547 48-48 48z" />
<glyph unicode="&#xe918;" glyph-name="Icon-Duplicate" d="M725.333 661.333h96c41.387 0 74.667-33.28 74.667-74.667v-448c0-41.387-33.28-74.667-74.667-74.667h-448c-41.387 0-74.667 33.28-74.667 74.667v96h-96c-41.387 0-74.667 33.28-74.667 74.667v448c0 41.387 33.28 74.667 74.667 74.667h448c41.387 0 74.667-33.28 74.667-74.667v-96zM640 661.333v85.333h-426.667v-426.667h85.333v266.667c0 41.387 33.28 74.667 74.667 74.667h266.667zM384 576v-426.667h426.667v426.667h-426.667z" />
<glyph unicode="&#xe919;" glyph-name="Icon-External-Link" d="M810.667 686.507l-439.467-439.467c-15.46-17.784-42.409-19.668-60.193-4.208s-19.668 42.409-4.208 60.193c1.436 1.651 2.996 3.19 4.668 4.602l438.613 439.040h-152.747c-23.564 0-42.667 19.103-42.667 42.667s19.103 42.667 42.667 42.667h256c23.564 0 42.667-19.103 42.667-42.667v-256c0-23.564-19.103-42.667-42.667-42.667s-42.667 19.103-42.667 42.667v153.173zM725.333 362.667v0c0 23.564 19.103 42.667 42.667 42.667s42.667-19.103 42.667-42.667c0 0 0 0 0 0v-213.333c0-47.128-38.205-85.333-85.333-85.333h-512c-47.128 0-85.333 38.205-85.333 85.333 0 0 0 0 0 0v512c0 46.933 38.4 85.333 85.333 85.333h213.333c23.564 0 42.667-19.103 42.667-42.667s-19.103-42.667-42.667-42.667h-213.333v-512h512v213.333z" />
<glyph unicode="&#xe91b;" glyph-name="image-file-upload" d="M277.333 490.667v0c-153.167 0-277.333-124.166-277.333-277.333s124.166-277.333 277.333-277.333c153.167 0 277.333 124.166 277.333 277.333v-0.009c-0.183 153.089-124.236 277.149-277.324 277.342zM381.867 225.408v0c-3.553-7.375-11.013-12.067-19.2-12.075h-37.376c-2.864-0.021-5.199-2.3-5.291-5.163v-122.837c0-23.564-19.103-42.667-42.667-42.667s-42.667 19.103-42.667 42.667v122.667c-0.045 2.91-2.381 5.265-5.291 5.333h-37.376c-11.782-0.007-21.339 9.539-21.346 21.321-0.003 4.842 1.642 9.541 4.663 13.324l85.333 106.667c7.97 9.214 21.901 10.221 31.114 2.251 0.804-0.695 1.556-1.447 2.251-2.251l85.333-106.667c5.107-6.415 6.085-15.188 2.517-22.571zM562.645 660.053v0c35.181-0.141 63.815 28.264 63.957 63.445s-28.264 63.815-63.445 63.957c-35.181 0.141-63.815-28.264-63.957-63.445 0-0.099-0.001-0.199-0.001-0.298v0.004c0.021-35.065 28.377-63.52 63.441-63.663zM999.040 832l-103.040 103.040c-16.006 15.989-37.707 24.966-60.331 24.96h-494.336c-47.128 0-85.333-38.205-85.333-85.333 0 0 0 0 0 0v-310.4c-0.048-5.779 4.548-10.527 10.325-10.667 15.616-0.299 44.288-1.451 63.36-3.499v0c5.735-0.661 10.92 3.453 11.581 9.188 0.053 0.462 0.076 0.928 0.067 1.393v292.651c0 11.782 9.551 21.333 21.333 21.333h464.171c5.647-0.001 11.063-2.241 15.061-6.229l90.539-90.539c3.988-3.998 6.228-9.414 6.229-15.061v-570.837c0-11.782-9.551-21.333-21.333-21.333h-292.608c-5.179-0.013-9.561-3.831-10.283-8.96v0c-3.197-21.181-8.397-42.010-15.531-62.208v0c-2.050-5.372 0.643-11.388 6.014-13.438 1.186-0.453 2.444-0.684 3.714-0.684h330.027c47.128 0 85.333 38.205 85.333 85.333v600.984c0 22.624-8.984 44.322-24.977 60.323zM873.685 409.6v0c1.389 2.534 1.291 5.623-0.256 8.064l-138.069 220.8c-4.651 7.458-14.467 9.734-21.925 5.083-2.060-1.284-3.798-3.023-5.083-5.083l-77.227-123.733c-2.338-3.735-7.262-4.867-10.997-2.529-1.023 0.641-1.888 1.505-2.529 2.529l-27.477 44.203c-4.739 7.458-14.627 9.662-22.086 4.922-1.982-1.26-3.663-2.94-4.922-4.922l-53.163-85.035c-2.638-4.257-1.886-9.786 1.792-13.184v0c16.503-15.522 31.425-32.644 44.544-51.115v0c1.968-2.741 5.16-4.337 8.533-4.267h302.037c2.884 0.068 5.502 1.704 6.827 4.267z" />
<glyph unicode="&#xe91c;" glyph-name="information-circle1" d="M512 960v0c-282.77 0-512-229.23-512-512s229.23-512 512-512c282.77 0 512 229.23 512 512v0.005c-0.309 282.643-229.362 511.693-512.004 511.996zM522.667 746.667v0c35.346 0 64-28.654 64-64s-28.654-64-64-64c-35.346 0-64 28.654-64 64v0c0 35.346 28.654 64 64 64 0 0 0 0 0 0zM618.667 170.667h-170.667c-23.564 0-42.667 19.103-42.667 42.667s19.103 42.667 42.667 42.667h32c5.891 0 10.667 4.776 10.667 10.667v192c0 5.891-4.776 10.667-10.667 10.667h-32c-23.564 0-42.667 19.103-42.667 42.667s19.103 42.667 42.667 42.667h42.667c47.128 0 85.333-38.205 85.333-85.333v-202.667c0-5.891 4.776-10.667 10.667-10.667h32c23.564 0 42.667-19.103 42.667-42.667s-19.103-42.667-42.667-42.667z" />
<glyph unicode="&#xe91d;" glyph-name="information-circle" d="M576 224c-52.949 0-96 43.051-96 96v160h-32c-17.664 0-32 14.336-32 32s14.336 32 32 32h32c35.285 0 64-28.715 64-64v-160c0-17.664 14.336-32 32-32h32c17.664 0 32-14.336 32-32s-14.336-32-32-32h-32zM544 656c0-26.51-21.49-48-48-48s-48 21.49-48 48c0 26.51 21.49 48 48 48s48-21.49 48-48zM512-64c-282.325 0-512 229.675-512 512s229.675 512 512 512c282.325 0 512-229.675 512-512s-229.675-512-512-512zM512 896c-247.040 0-448-200.96-448-448s200.96-448 448-448c247.040 0 448 200.96 448 448s-200.96 448-448 448z" />
<glyph unicode="&#xe91e;" glyph-name="lab-tube-bottle" d="M481.877 588.459v0c-7.642 3.456-12.551 11.069-12.544 19.456v309.419c0 23.564-19.103 42.667-42.667 42.667h-170.667c-23.564 0-42.667-19.103-42.667-42.667 0 0 0 0 0 0v-309.42c0.006-8.387-4.902-16-12.545-19.455v0c-171.791-77.62-248.132-279.808-170.512-451.601 77.62-171.791 279.808-248.132 451.601-170.512 171.791 77.62 248.132 279.808 170.512 451.601-34.199 75.69-94.822 136.313-170.512 170.512zM596.267 254.037v0c-1.017-11.010-10.277-19.418-21.333-19.371h-467.285c-11.056-0.047-20.316 8.361-21.333 19.371-0.64 7.68-0.981 15.445-0.981 23.296v-0.001c-0.31 104.419 63.089 198.471 159.999 237.356v0c32.303 12.978 53.434 44.335 53.334 79.147v259.499c0 11.782 9.551 21.333 21.333 21.333h42.667c11.782 0 21.333-9.551 21.333-21.333v-259.499c-0.105-34.804 21.029-66.151 53.333-79.104v0c96.909-38.909 160.304-132.969 160-237.397 0-7.851-0.341-15.616-1.067-23.296zM938.667 874.667h-170.667c-47.128 0-85.333-38.205-85.333-85.333 0 0 0 0 0 0v-298.667c0-23.564 19.103-42.667 42.667-42.667s42.667 19.103 42.667 42.667v277.333c0 11.782 9.551 21.333 21.333 21.333h128c11.782 0 21.333-9.551 21.333-21.333v-128c0-11.782-9.551-21.333-21.333-21.333h-21.333c-23.564 0-42.667-19.103-42.667-42.667s19.103-42.667 42.667-42.667h21.333c11.782 0 21.333-9.551 21.333-21.333v-42.667c0-11.782-9.551-21.333-21.333-21.333h-21.333c-23.564 0-42.667-19.103-42.667-42.667s19.103-42.667 42.667-42.667h21.333c11.782 0 21.333-9.551 21.333-21.333v-42.667c0-11.782-9.551-21.333-21.333-21.333h-21.333c-23.564 0-42.667-19.103-42.667-42.667s19.103-42.667 42.667-42.667h21.333c11.782 0 21.333-9.551 21.333-21.333v-59.179c0.997-42.889-28.842-80.346-70.869-88.96v0c-40.882-7.010-80.884 16.393-94.805 55.467v0c-6.211 17.186-22.515 28.647-40.789 28.672v0c-23.352 0.080-42.348-18.785-42.428-42.137-0.016-4.527 0.696-9.028 2.108-13.33v0c25.837-74.869 99.702-122.2 178.517-114.389v0c88.951 11.343 155.125 87.792 153.6 177.451v675.072c0 47.128-38.205 85.333-85.333 85.333z" />
<glyph unicode="&#xe91f;" glyph-name="lab-tube-experiment" d="M746.667 933.547v0c-12.039 16.619-31.318 26.457-51.84 26.453h-365.696c-20.507-0.010-39.767-9.846-51.797-26.453v0c-12.21-17.087-15.39-39.029-8.533-58.88v0c19.81-57.52 29.903-117.937 29.867-178.773v-546.56c0-117.821 95.513-213.333 213.333-213.333s213.333 95.513 213.333 213.333v546.53c0.030 60.998 10.236 121.563 30.198 179.202v0c6.639 19.784 3.339 41.554-8.865 58.481zM412.331 330.88v0.001c-0.023 29.597 23.951 53.608 53.548 53.631s53.608-23.951 53.631-53.548c0.023-29.597-23.951-53.608-53.548-53.631-0.028 0-0.057 0-0.085 0v0c-29.336-0.236-53.309 23.355-53.545 52.691-0.002 0.285-0.002 0.57 0 0.856zM551.211 64v0c-29.455 0.142-53.218 24.134-53.076 53.589s24.134 53.218 53.589 53.076c29.271-0.141 52.959-23.847 53.076-53.119v0c0-29.573-23.974-53.547-53.547-53.547-0.014 0-0.028 0-0.043 0zM572.8 448v0c-29.219-0.236-53.096 23.26-53.332 52.478-0.001 0.129-0.002 0.257-0.002 0.386v0c-0.259 29.454 23.408 53.541 52.862 53.801s53.541-23.408 53.801-52.862c0.259-29.454-23.408-53.541-52.862-53.801-0.156-0.001-0.312-0.002-0.467-0.002zM658.389 848.171v0c-12.295-49.823-18.47-100.96-18.389-152.277v-55.893c0-11.782-9.551-21.333-21.333-21.333h-213.333c-11.782 0-21.333 9.551-21.333 21.333 0 0 0 0 0 0v55.908c0.069 51.326-6.079 102.472-18.308 152.32v0c-2.82 11.44 4.167 22.999 15.607 25.82 1.61 0.397 3.261 0.605 4.92 0.619h251.435c11.782 0.020 21.35-9.514 21.37-21.297 0.003-1.753-0.21-3.499-0.634-5.199z" />
<glyph unicode="&#xe920;" glyph-name="lab-tube" d="M158.72 228.181c-80.555-105.344-80.555-146.56-80.555-160.128v0c-4.147-72.931 51.613-135.415 124.544-139.563s135.415 51.613 139.563 124.544c0.284 5.002 0.284 10.016 0 15.018 0 13.568 0 54.784-80.512 160.171v0c-23.472 28.444-65.558 32.475-94.001 9.003-3.295-2.719-6.322-5.748-9.038-9.046zM941.312 822.613v0c-21.861 95.195-116.754 154.645-211.95 132.784-11.307-2.597-22.332-6.3-32.914-11.056l-436.181-196.011c-30.726-13.791-64.168-20.471-97.835-19.541v0c-35.756 1.013-65.564-27.151-66.577-62.907-0.277-9.789 1.669-19.514 5.692-28.442l115.413-256.64c14.586-32.636 52.867-47.268 85.502-32.682 8.968 4.008 16.906 10.005 23.212 17.535v0c21.697 25.804 48.922 46.394 79.659 60.245l431.403 193.92c78.877 33.883 122.71 118.885 104.576 202.795zM801.749 697.643l-24.875-11.179c-10.745-4.83-23.371-0.035-28.203 10.709l-11.051 24.533c-9.393 21.611-34.527 31.516-56.138 22.123s-31.516-34.527-22.123-56.138c0.142-0.326 0.287-0.65 0.437-0.972l11.008-24.533c4.83-10.745 0.035-23.371-10.709-28.203l-38.4-17.067c-5.151-2.322-11.012-2.506-16.299-0.512v0c-5.294 2-9.576 6.021-11.904 11.179l-12.245 27.307c-9.393 21.611-34.527 31.516-56.138 22.123s-31.516-34.527-22.123-56.138c0.142-0.326 0.287-0.65 0.437-0.972l12.245-27.307c4.83-10.745 0.035-23.371-10.709-28.203l-46.037-20.693c-10.745-4.83-23.371-0.035-28.203 10.709l-15.019 33.451c-9.673 21.491-34.936 31.070-56.427 21.397s-31.070-34.936-21.397-56.427l15.616-34.731c4.591-10.084 0.698-22.004-8.96-27.435v0c-14.547-8.27-28.401-17.702-41.429-28.203v0c-9.175-7.391-22.605-5.946-29.997 3.23-1.148 1.426-2.109 2.993-2.857 4.664l-66.347 147.499c-4.873 10.727-0.128 23.374 10.599 28.247 1.694 0.769 3.481 1.314 5.315 1.62v0c26.021 4.394 51.382 12.064 75.477 22.827v0l436.139 195.968c46.010 20.754 100.133 0.281 120.887-45.73 2.578-5.715 4.561-11.68 5.918-17.801v0c8.263-44.026-15.246-87.866-56.491-105.344z" />
<glyph unicode="&#xe921;" glyph-name="lab-tubes" d="M981.333 618.667v0c-23.564 0-42.667-19.103-42.667-42.667 0 0 0 0 0 0v-64c0-11.782-9.551-21.333-21.333-21.333h-64c-11.782 0-21.333 9.551-21.333 21.333 0 0 0 0 0 0v388.267c0 32.99-26.744 59.733-59.733 59.733h-136.533c-32.99 0-59.733-26.744-59.733-59.733 0 0 0 0 0 0v-388.267c0-11.782-9.551-21.333-21.333-21.333h-85.333c-11.782 0-21.333 9.551-21.333 21.333 0 0 0 0 0 0v388.267c0 32.99-26.744 59.733-59.733 59.733 0 0 0 0 0 0h-136.533c-32.99 0-59.733-26.744-59.733-59.733 0 0 0 0 0 0v-388.267c0-11.782-9.551-21.333-21.333-21.333h-64c-11.782 0-21.333 9.551-21.333 21.333 0 0 0 0 0 0v64c0 23.564-19.103 42.667-42.667 42.667s-42.667-19.103-42.667-42.667v-426.667c0.141-117.762 95.571-213.193 213.333-213.334h597.333c117.762 0.141 213.192 95.571 213.333 213.333v426.667c0 23.564-19.103 42.667-42.667 42.667 0 0 0 0 0 0zM661.333 853.333v0c0 11.782 9.551 21.333 21.333 21.333h42.667c11.782 0 21.333-9.551 21.333-21.333v-192c0-11.782-9.551-21.333-21.333-21.333h-42.667c-11.782 0-21.333 9.551-21.333 21.333 0 0 0 0 0 0zM277.333 853.333v0c0 11.782 9.551 21.333 21.333 21.333h42.667c11.782 0 21.333-9.551 21.333-21.333v-192c0-11.782-9.551-21.333-21.333-21.333h-42.667c-11.782 0-21.333 9.551-21.333 21.333 0 0 0 0 0 0zM810.667 21.333h-597.333c-70.692 0-128 57.308-128 128 0 0 0 0 0 0v234.667c0 11.782 9.551 21.333 21.333 21.333h64c11.782 0 21.333-9.551 21.333-21.333v-143.147c-0.713-66.929 48.807-123.785 115.2-132.267 4.267-0.427 8.533-0.64 12.8-0.64v0c70.692 0 128 57.308 128 128v148.053c0 11.782 9.551 21.333 21.333 21.333h85.333c11.782 0 21.333-9.551 21.333-21.333v-143.147c-0.713-66.929 48.807-123.785 115.2-132.267 4.267-0.427 8.533-0.64 12.8-0.64v0c70.692 0 128 57.308 128 128v148.053c0 11.782 9.551 21.333 21.333 21.333h64c11.782 0 21.333-9.551 21.333-21.333v-234.667c0-70.692-57.308-128-128-128z" />
<glyph unicode="&#xe922;" glyph-name="Logout-Alternate" d="M426.667 384v-157.866c0.023-16.383 9.424-31.306 24.191-38.4v0c14.848-6.736 32.198-4.752 45.141 5.163l277.333 221.867c18.392 14.731 21.359 41.583 6.628 59.975-1.959 2.446-4.182 4.669-6.628 6.628l-277.333 221.867c-18.395 14.727-45.246 11.754-59.973-6.641-6.071-7.583-9.373-17.011-9.36-26.725v-157.867h-362.667c-35.346 0-64-28.654-64-64s28.654-64 64-64zM512 960v0c-201.75-0.226-384.64-118.669-467.371-302.677v0c-9.65-21.514-0.031-46.777 21.483-56.427s46.777-0.031 56.427 21.483v0c96.361 215.038 348.801 311.244 563.84 214.883s311.244-348.801 214.883-563.84c-96.361-215.038-348.801-311.244-563.84-214.883-94.92 42.535-171.033 118.279-214.030 212.991v0c-9.274 21.662-34.353 31.705-56.015 22.431s-31.705-34.353-22.431-56.015c0.251-0.587 0.516-1.168 0.793-1.744v0c116.972-257.442 420.495-371.314 677.935-254.342 257.442 116.972 371.314 420.495 254.342 677.935-83.048 182.778-265.256 300.155-466.018 300.203z" />
<glyph unicode="&#xe923;" glyph-name="logout-1" d="M831.957 255.829c-8.533 0-16.597 3.328-22.613 9.387-12.459 12.459-12.459 32.768 0 45.269l105.387 105.387h-594.773c-17.664 0-32 14.336-32 32s14.336 32 32 32h594.731l-105.387 105.387c-6.059 6.016-9.387 14.080-9.387 22.613s3.328 16.597 9.387 22.613 14.080 9.387 22.613 9.387 16.597-3.328 22.613-9.387l160-160c1.493-1.493 2.816-3.115 4.011-4.864 0.299-0.427 0.64-1.067 0.939-1.621 0.725-1.195 1.365-2.432 1.92-3.712 0.299-0.683 0.683-1.92 0.896-2.603 0.341-0.853 0.725-2.176 0.981-3.584 0.384-1.835 0.64-4.011 0.64-6.229 0-2.133-0.213-4.267-0.64-6.315-0.256-1.28-0.64-2.517-1.067-3.755-0.171-0.683-0.512-1.621-0.896-2.475-0.384-0.981-1.067-2.261-1.835-3.541-0.043-0.128-0.427-0.896-0.896-1.579-0.939-1.365-1.792-2.432-2.731-3.456-0.043-0.128-0.64-0.853-1.323-1.493l-160-160c-6.016-6.101-14.037-9.429-22.571-9.429zM89.301-32c-51.541 2.603-91.648 46.293-89.301 97.451l-0.043 766.549c-2.347 50.005 37.376 93.397 88.576 95.957l525.227 0.043c52.395-2.56 92.459-46.293 90.155-97.451l0.043-190.549c0-17.664-14.336-32-32-32s-32 14.336-32 32v192c0.768 17.195-11.733 31.232-27.819 32.043l-522.027-0.043c-14.549-0.768-26.923-14.763-26.197-30.549l0.043-769.451c-0.768-17.195 11.733-31.232 27.776-32.043l522.027 0.043c14.549 0.768 26.965 14.763 26.24 30.549l-0.043 193.451c0 17.664 14.336 32 32 32s32-14.336 32-32v-192c2.304-50.048-37.461-93.397-88.619-95.957l-525.227-0.043c-0.256 0-0.555 0-0.811 0z" />
<glyph unicode="&#xe924;" glyph-name="logout" d="M544.213 255.829c-8.533 0-16.597 3.328-22.613 9.387-12.459 12.459-12.459 32.768 0 45.269l105.387 105.387h-594.773c-17.664 0-32 14.336-32 32s14.336 32 32 32h594.731l-105.387 105.387c-6.059 6.016-9.387 14.080-9.387 22.613s3.328 16.597 9.387 22.613c6.016 6.059 14.080 9.387 22.613 9.387s16.597-3.328 22.613-9.387l160-160c2.987-2.987 5.333-6.485 6.955-10.453 0.128-0.341 0.299-0.725 0.427-1.109 1.323-3.456 2.005-7.253 2.005-11.051 0-3.712-0.683-7.424-2.005-11.008-0.085-0.256-0.171-0.469-0.256-0.683-1.792-4.437-4.181-7.936-7.168-10.965l-159.957-159.957c-5.973-6.101-14.037-9.429-22.571-9.429zM544.811-32.128c-182.827 0-352.512 105.941-432.299 269.867-3.755 7.68-4.267 16.341-1.493 24.448s8.576 14.592 16.256 18.347c4.437 2.133 9.131 3.2 13.995 3.2 12.373 0 23.381-6.912 28.8-18.005 48.64-99.925 133.248-174.891 238.293-211.157 44.203-15.275 89.984-22.997 136.064-22.997 63.104 0 124.245 14.208 181.76 42.197 99.925 48.64 174.891 133.248 211.157 238.293s29.44 217.899-19.2 317.824c-69.163 142.080-216.235 233.899-374.741 233.899-63.189 0-124.245-14.123-181.376-41.941-79.36-38.613-143.317-100.224-184.875-178.048-5.589-10.453-16.384-16.939-28.245-16.939-5.205 0-10.411 1.323-15.061 3.755-15.573 8.32-21.461 27.733-13.184 43.307 48 89.856 121.728 160.896 213.333 205.483 65.963 32.128 136.405 48.384 209.365 48.384 182.827 0 352.512-105.941 432.299-269.909 56.107-115.285 64-245.504 22.144-366.72-41.813-121.216-128.384-218.837-243.627-274.944-65.963-32.085-136.363-48.341-209.365-48.341z" />
<glyph unicode="&#xe925;" glyph-name="module-four" d="M512-32c-2.176 0-4.352 0.213-6.443 0.64-2.048 0.427-4.011 1.024-5.931 1.835-0.085 0.043-448.213 192.085-448.213 192.085-11.819 5.077-19.413 16.597-19.413 29.44 0 0 0 448.427 0 448.725 0.043 2.176 0.341 4.267 0.811 6.4 0.085 0.427 0.427 1.664 0.597 2.048 0.512 1.664 1.109 3.2 1.835 4.693 0.341 0.683 0.683 1.365 1.067 2.091 0.939 1.664 2.048 3.157 3.243 4.608 0.384 0.512 0.597 0.725 0.981 1.152 1.536 1.664 3.2 3.115 4.949 4.352 0.256 0.213 0.555 0.427 0.811 0.597 0.512 0.341 1.195 0.725 1.877 1.067 1.195 0.683 2.176 1.237 3.2 1.664l236.629 101.419v61.184c0 66.304 112.512 96 224 96s224-29.696 224-96v-61.184l236.587-101.376c1.067-0.469 2.091-1.024 3.115-1.621 0.725-0.341 1.408-0.725 2.048-1.195 0.256-0.171 0.469-0.341 0.725-0.512 1.664-1.152 3.371-2.645 4.949-4.309 0.384-0.427 1.067-1.28 1.451-1.749 0.811-0.939 1.877-2.432 2.773-4.011 0.469-0.768 0.853-1.536 1.195-2.347 0.597-1.237 1.195-2.773 1.707-4.352 0.341-1.024 0.555-1.792 0.683-2.603 0.427-1.664 0.683-3.755 0.768-5.888 0-0.299 0-448.853 0-448.853 0-12.843-7.595-24.363-19.413-29.397 0 0-448.128-192.043-448.213-192.085-1.92-0.811-3.883-1.408-5.973-1.835-2.048-0.469-4.224-0.683-6.4-0.683zM544 48.512l384 164.565v378.411l-384-164.565v-378.411zM480 48.512v378.368l-384 164.565v-378.368l384-164.565zM512 482.816l366.763 157.184-142.805 61.184c-3.157-64.341-114.048-93.184-223.957-93.184s-220.8 28.843-223.915 93.184l-142.848-61.184 366.763-157.184zM352 706.475c8.021-8.875 58.539-34.475 160-34.475 101.419 0 151.979 25.6 160 34.475v55.253c-40.32-16.341-97.749-25.728-160-25.728s-119.68 9.387-160 25.728v-55.253zM354.816 832c13.739-10.411 64-32 157.184-32 93.227 0 143.445 21.589 157.184 32-13.781 10.411-64 32-157.184 32s-143.445-21.589-157.184-32z" />
<glyph unicode="&#xe92a;" glyph-name="navigation-menu" d="M64 725.333c-23.564 0-42.667 19.103-42.667 42.667v42.667c0 23.564 19.103 42.667 42.667 42.667h896c23.564 0 42.667-19.103 42.667-42.667v-42.667c0-23.564-19.103-42.667-42.667-42.667zM64 384c-23.564 0-42.667 19.103-42.667 42.667v42.667c0 23.564 19.103 42.667 42.667 42.667h896c23.564 0 42.667-19.103 42.667-42.667v-42.667c0-23.564-19.103-42.667-42.667-42.667zM64 42.667c-23.564 0-42.667 19.103-42.667 42.667v42.667c0 23.564 19.103 42.667 42.667 42.667h896c23.564 0 42.667-19.103 42.667-42.667v-42.667c0-23.564-19.103-42.667-42.667-42.667z" />
<glyph unicode="&#xe92b;" glyph-name="open" d="M938.667 448c-23.563 0-42.667-19.104-42.667-42.667v-298.667c0-23.573-19.093-42.667-42.667-42.667h-682.667c-23.573 0-42.667 19.093-42.667 42.667v682.667c0 23.573 19.093 42.667 42.667 42.667h298.667c23.563 0 42.667 19.104 42.667 42.667s-19.104 42.667-42.667 42.667h-298.667c-70.688 0-128-57.312-128-128v-682.667c0-70.688 57.312-128 128-128h682.667c70.688 0 128 57.312 128 128v298.667c0 23.563-19.104 42.667-42.667 42.667zM981.333 874.667v-256c0-23.563-19.104-42.667-42.667-42.667s-42.667 19.104-42.667 42.667v153.003l-349.557-349.547c-16.651-16.661-43.669-16.661-60.32 0-16.661 16.651-16.661 43.669 0 60.331l349.536 349.547h-152.992c-23.563 0-42.667 19.104-42.667 42.667s19.104 42.667 42.667 42.667h256c23.563 0 42.667-19.104 42.667-42.667z" />
<glyph unicode="&#xe92c;" glyph-name="performance-increase-1" d="M32-64c-17.664 0-32 14.336-32 32s14.336 32 32 32h32v192c0 35.285 28.715 64 64 64h128c35.285 0 64-28.715 64-64v-192h64v512c0 35.285 28.715 64 64 64h128c35.285 0 64-28.715 64-64v-512h64v384c0 35.285 28.715 64 64 64h128c35.285 0 64-28.715 64-64v-384h32c17.664 0 32-14.336 32-32s-14.336-32-32-32h-960zM896 0v384h-128v-384h128zM576 0v512h-128v-512h128zM256 0v192h-128v-192h128zM96 447.872c-8.533 0-16.597 3.328-22.613 9.387-6.059 6.016-9.387 14.080-9.387 22.613s3.328 16.597 9.387 22.613l248.832 248.832c23.808 23.808 56.875 37.504 90.667 37.504 11.093 0 22.144-1.451 32.853-4.309l243.584-65.109c6.656-2.005 13.013-2.944 19.413-2.944 17.067 0 33.109 6.656 45.141 18.688l160.853 160.853h-114.731c-17.664 0-32 14.336-32 32s14.336 32 32 32h192c3.797 0 7.509-0.683 11.136-2.048 0.469-0.171 0.939-0.341 1.365-0.512 7.509-3.072 13.867-9.429 17.067-17.237 0.128-0.341 0.299-0.725 0.427-1.109 1.323-3.499 2.005-7.296 2.005-11.093v-192c0-17.664-14.336-32-32-32s-32 14.336-32 32v114.731l-160.853-160.853c-24.149-24.192-56.277-37.504-90.411-37.504-12.459 0-24.875 1.835-36.864 5.419l-242.645 64.853c-5.333 1.408-10.88 2.133-16.427 2.133-16.939 0-33.451-6.827-45.397-18.731l-248.789-248.789c-6.016-6.059-14.080-9.387-22.613-9.387z" />
<glyph unicode="&#xe92d;" glyph-name="qr-code-scan" d="M224 576c-17.664 0-32 14.336-32 32v128c0 17.664 14.336 32 32 32h128c17.664 0 32-14.336 32-32v-128c0-17.664-14.336-32-32-32h-128zM320 640v64h-64v-64h64zM224 128c-17.664 0-32 14.336-32 32v128c0 17.664 14.336 32 32 32h128c17.664 0 32-14.336 32-32v-128c0-17.664-14.336-32-32-32h-128zM320 192v64h-64v-64h64zM672 576c-17.664 0-32 14.336-32 32v128c0 17.664 14.336 32 32 32h128c17.664 0 32-14.336 32-32v-128c0-17.664-14.336-32-32-32h-128zM768 640v64h-64v-64h64zM480 320c-17.664 0-32 14.336-32 32v32h-224c-17.664 0-32 14.336-32 32s14.336 32 32 32h256c17.664 0 32-14.336 32-32v-64c0-17.664-14.336-32-32-32zM608 128c-17.664 0-32 14.336-32 32v192c0 17.664 14.336 32 32 32s32-14.336 32-32v-160h128v128h-32c-17.664 0-32 14.336-32 32s14.336 32 32 32h64c17.664 0 32-14.336 32-32v-192c0-17.664-14.336-32-32-32h-192zM480 128c-17.664 0-32 14.336-32 32v64c0 17.664 14.336 32 32 32s32-14.336 32-32v-64c0-17.664-14.336-32-32-32zM480 512c-17.664 0-32 14.336-32 32v192c0 17.664 14.336 32 32 32s32-14.336 32-32v-160h32c17.664 0 32-14.336 32-32s-14.336-32-32-32h-64zM672 448c-17.664 0-32 14.336-32 32s14.336 32 32 32h128c17.664 0 32-14.336 32-32s-14.336-32-32-32h-128zM32 672c-17.664 0-32 14.336-32 32v160c0 52.949 43.051 96 96 96h160c17.664 0 32-14.336 32-32s-14.336-32-32-32h-160c-17.664 0-32-14.336-32-32v-160c0-17.664-14.336-32-32-32zM992 672c-17.664 0-32 14.336-32 32v160c0 17.664-14.336 32-32 32h-160c-17.664 0-32 14.336-32 32s14.336 32 32 32h160c52.949 0 96-43.051 96-96v-160c0-17.664-14.336-32-32-32zM768-64c-17.664 0-32 14.336-32 32s14.336 32 32 32h160c17.664 0 32 14.336 32 32v160c0 17.664 14.336 32 32 32s32-14.336 32-32v-160c0-52.949-43.051-96-96-96h-160zM96-64c-52.949 0-96 43.051-96 96v160c0 17.664 14.336 32 32 32s32-14.336 32-32v-160c0-17.664 14.336-32 32-32h160c17.664 0 32-14.336 32-32s-14.336-32-32-32h-160z" />
<glyph unicode="&#xe92f;" glyph-name="qr-code" d="M32 320c-17.664 0-32 14.336-32 32v64c0 17.664 14.336 32 32 32s32-14.336 32-32v-32h32c17.664 0 32-14.336 32-32s-96-32-96-32zM32 640c-17.664 0-32 14.336-32 32v256c0 17.664 14.336 32 32 32h256c17.664 0 32-14.336 32-32v-256c0-17.664-14.336-32-32-32h-256zM256 704v192h-192v-192h192zM736 640c-17.664 0-32 14.336-32 32v256c0 17.664 14.336 32 32 32h256c17.664 0 32-14.336 32-32v-256c0-17.664-14.336-32-32-32h-256zM960 704v192h-192v-192h192zM32-64c-17.664 0-32 14.336-32 32v256c0 17.664 14.336 32 32 32h256c17.664 0 32-14.336 32-32v-256c0-17.664-14.336-32-32-32h-256zM256 0v192h-192v-192h192zM512 896c-17.664 0-32 14.336-32 32s14.336 32 32 32h96c17.664 0 32-14.336 32-32s-14.336-32-32-32h-96zM416 768c-17.664 0-32 14.336-32 32v128c0 17.664 14.336 32 32 32s32-14.336 32-32v-96h64c17.664 0 32-14.336 32-32s-14.336-32-32-32h-96zM416 640c-17.664 0-32 14.336-32 32s14.336 32 32 32h160v96c0 17.664 14.336 32 32 32s32-14.336 32-32v-128c0-17.664-14.336-32-32-32h-192zM288 448c-17.664 0-32 14.336-32 32v32h-224c-17.664 0-32 14.336-32 32s14.336 32 32 32h256c17.664 0 32-14.336 32-32v-64c0-17.664-14.336-32-32-32zM224 320c-17.664 0-32 14.336-32 32s14.336 32 32 32h64c17.664 0 32-14.336 32-32s-96-32-96-32zM864-64c-17.664 0-32 14.336-32 32v128c0 17.664 14.336 32 32 32h96v64h-96c-17.664 0-32 14.336-32 32s14.336 32 32 32h128c17.664 0 32-14.336 32-32v-128c0-17.664-14.336-32-32-32h-96v-64h96c17.664 0 32-14.336 32-32s-14.336-32-32-32h-128zM416-64c-17.664 0-32 14.336-32 32v256c0 17.664 14.336 32 32 32s32-14.336 32-32v-224h160c17.664 0 32-14.336 32-32s-14.336-32-32-32h-192zM736-64c-17.664 0-32 14.336-32 32v256c0 17.664 14.336 32 32 32s32-14.336 32-32v-256c0-17.664-14.336-32-32-32zM544 64c-17.664 0-32 14.336-32 32s14.336 32 32 32h32v64h-32c-17.664 0-32 14.336-32 32s14.336 32 32 32h64c17.664 0 32-14.336 32-32v-128c0-17.664-14.336-32-32-32h-64zM416 320c-17.664 0-32 14.336-32 32v64c0 17.664 14.336 32 32 32s32-14.336 32-32v-32h32c17.664 0 32-14.336 32-32s-14.336-32-32-32h-64zM608 320c-17.664 0-32 14.336-32 32s14.336 32 32 32h32v96c0 17.664 14.336 32 32 32s32-14.336 32-32v-96h32c17.664 0 32-14.336 32-32s-14.336-32-32-32h-128zM544 448c-17.664 0-32 14.336-32 32v32h-96c-17.664 0-32 14.336-32 32s14.336 32 32 32h128c17.664 0 32-14.336 32-32v-64c0-17.664-14.336-32-32-32zM992 448c-17.664 0-32 14.336-32 32v64c0 17.664 14.336 32 32 32s32-14.336 32-32v-64c0-17.664-14.336-32-32-32zM992 320c-17.664 0-32 14.336-32 32v32c0 17.664 14.336 32 32 32s32-14.336 32-32v-32c0-17.664-14.336-32-32-32zM864 352c-17.664 0-32 14.336-32 32v64h-32c-17.664 0-32 14.336-32 32v64c0 17.664 14.336 32 32 32s32-14.336 32-32v-32h32c17.664 0 32-14.336 32-32v-96c0-17.664-14.336-32-32-32z" />
<glyph unicode="&#xe930;" glyph-name="question-circle" d="M512 320c-17.664 0-32 14.336-32 32v42.923c-0.043 40.619 25.685 77.013 64 90.539 38.272 13.525 64 49.92 64 90.496 0 25.643-9.984 49.749-28.117 67.883-18.091 18.133-42.197 28.117-67.883 28.117-25.643 0-49.749-9.984-67.883-28.117-18.133-18.091-28.117-42.197-28.117-67.84 0-17.621-14.336-32-32-32s-32 14.379-32 32c0 42.752 16.683 82.901 46.891 113.109s70.4 46.848 113.109 46.848c88.235 0 160-71.808 160-160 0-67.669-42.88-128.256-106.667-150.827-12.757-4.523-21.333-16.64-21.333-30.165v-42.965c0-17.664-14.336-32-32-32zM560 208c0-26.51-21.49-48-48-48s-48 21.49-48 48c0 26.51 21.49 48 48 48s48-21.49 48-48zM512-64c-282.325 0-512 229.675-512 512s229.675 512 512 512c282.325 0 512-229.675 512-512s-229.675-512-512-512zM512 896c-247.040 0-448-200.96-448-448s200.96-448 448-448c247.040 0 448 200.96 448 448s-200.96 448-448 448z" />
<glyph unicode="&#xe931;" glyph-name="question-help-circle" d="M512 960v0c-282.77 0-512-229.23-512-512s229.23-512 512-512c282.77 0 512 229.23 512 512v0.005c-0.309 282.643-229.362 511.693-512.004 511.996zM512 149.333v0c-35.346 0-64 28.654-64 64s28.654 64 64 64c35.346 0 64-28.654 64-64v0c0-35.346-28.654-64-64-64zM580.267 408.747v0c-15.556-6.789-25.608-22.153-25.6-39.125v0c0-23.564-19.103-42.667-42.667-42.667s-42.667 19.103-42.667 42.667v0.019c0 50.903 30.162 96.968 76.818 117.322v0c43.189 18.861 62.912 69.163 44.050 112.352s-69.163 62.912-112.352 44.050c-31.103-13.583-51.2-44.306-51.182-78.246v0c0-23.564-19.103-42.667-42.667-42.667s-42.667 19.103-42.667 42.667v0.003c0 94.257 76.41 170.667 170.667 170.667s170.667-76.41 170.667-170.667c0-67.862-40.206-129.276-102.402-156.42z" />
<glyph unicode="&#xe933;" glyph-name="question-help-message" d="M224-64c-4.949 0-9.899 1.152-14.336 3.371-10.88 5.461-17.664 16.427-17.664 28.629v160h-96c-52.949 0-96 43.051-96 96v640c0 52.949 43.051 96 96 96h832c52.949 0 96-43.051 96-96v-640c0-52.949-43.051-96-96-96h-437.333l-247.467-185.6c-5.504-4.139-12.331-6.4-19.2-6.4zM96 896c-17.664 0-32-14.336-32-32v-640c0-17.664 14.336-32 32-32h128c17.664 0 32-14.336 32-32v-128l204.8 153.6c5.504 4.139 12.331 6.4 19.2 6.4h448c17.664 0 32 14.336 32 32v640c0 17.664-14.336 32-32 32h-832zM512 448c-17.664 0-32 14.336-32 32v10.923c-0.043 40.619 25.685 77.013 64 90.539 38.272 13.525 64 49.92 64 90.496 0 25.6-9.984 49.707-28.16 67.84-18.133 18.176-42.24 28.16-67.84 28.16-25.643 0-49.749-9.984-67.883-28.117-18.133-18.091-28.117-42.197-28.117-67.84 0-17.664-14.336-32-32-32s-32 14.379-32 32c0 88.192 71.808 159.957 160 159.957 42.752 0 82.944-16.64 113.152-46.891s46.848-70.4 46.848-113.152c0-67.669-42.88-128.256-106.667-150.827-12.757-4.523-21.333-16.64-21.333-30.208v-10.923c0-17.621-14.336-31.957-32-31.957zM560 336c0-26.51-21.49-48-48-48s-48 21.49-48 48c0 26.51 21.49 48 48 48s48-21.49 48-48z" />
<glyph unicode="&#xe934;" glyph-name="question-help-square" d="M512 352c-17.664 0-32 14.336-32 32v10.923c-0.043 40.619 25.685 77.013 64 90.539 38.272 13.525 64 49.92 64 90.496 0 25.6-9.984 49.707-28.16 67.84-18.133 18.176-42.24 28.16-67.84 28.16-25.643 0-49.749-9.984-67.883-28.117-18.133-18.091-28.117-42.197-28.117-67.84 0-17.621-14.336-32-32-32s-32 14.379-32 32c0 88.192 71.808 159.957 160 159.957 42.752 0 82.944-16.64 113.152-46.891 30.208-30.208 46.848-70.4 46.848-113.109 0-67.669-42.88-128.256-106.667-150.827-12.757-4.523-21.333-16.64-21.333-30.165v-10.965c0-17.664-14.336-32-32-32zM560 240c0-26.51-21.49-48-48-48s-48 21.49-48 48c0 26.51 21.49 48 48 48s48-21.49 48-48zM96-64c-52.949 0-96 43.051-96 96v832c0 52.949 43.051 96 96 96h832c52.949 0 96-43.051 96-96v-832c0-52.949-43.051-96-96-96h-832zM96 896c-17.664 0-32-14.336-32-32v-832c0-17.664 14.336-32 32-32h832c17.664 0 32 14.336 32 32v832c0 17.664-14.336 32-32 32h-832z" />
<glyph unicode="&#xe935;" glyph-name="scroll-vertical-1" d="M587.426 520.183c41.656-41.656 41.656-109.193 0-150.849s-109.193-41.656-150.849 0c-41.656 41.656-41.656 109.193 0 150.849s109.193 41.656 150.849 0zM704 235.051h-384c-23.564-0.027-42.644-19.152-42.617-42.716 0.012-10.504 3.899-20.635 10.916-28.452l192-213.333c15.771-17.508 42.749-18.916 60.258-3.145 1.102 0.993 2.152 2.043 3.145 3.145l192 213.333c15.741 17.536 14.286 44.511-3.249 60.252-7.817 7.017-17.948 10.904-28.452 10.916zM320 661.717h384c23.564 0.006 42.662 19.114 42.655 42.678-0.003 10.537-3.905 20.701-10.954 28.533l-192 213.333c-16.877 17.508-44.752 18.020-62.26 1.143-0.388-0.374-0.769-0.755-1.142-1.142l-192-213.333c-15.764-17.514-14.346-44.492 3.169-60.256 7.832-7.049 17.996-10.951 28.533-10.954z" />
<glyph unicode="&#xe936;" glyph-name="scroll-vertical" d="M602.509 539.064c49.987-49.987 49.987-131.032 0-181.019s-131.032-49.987-181.019 0c-49.987 49.987-49.987 131.032 0 181.019s131.032 49.987 181.019 0zM315.051 652.459l189.397 189.44c4.127 4.171 10.854 4.206 15.024 0.080 0.027-0.026 0.053-0.053 0.080-0.080l189.397-189.44c20.831-20.831 54.604-20.831 75.435 0s20.831 54.604 0 75.435c0 0 0 0 0 0l-204.501 204.501c-37.954 36.355-97.812 36.355-135.765 0l-204.501-204.501c-20.831-20.831-20.831-54.604 0-75.435s54.604-20.831 75.435 0zM708.949 244.608l-189.397-189.44c-4.177-4.155-10.927-4.155-15.104 0l-189.397 189.44c-20.831 20.831-54.604 20.831-75.435 0s-20.831-54.604 0-75.435c0 0 0 0 0 0l204.459-204.459c37.478-37.502 98.262-37.522 135.764-0.044 0.015 0.014 0.029 0.029 0.044 0.044l204.501 204.501c20.831 20.831 20.831 54.604 0 75.435s-54.604 20.831-75.435 0z" />
<glyph unicode="&#xe937;" glyph-name="Select-Arrows" d="M512 908.8l-256-358.4h512l-256 358.4zM512-12.8l256 358.4h-512l256-358.4z" />
<glyph unicode="&#xe938;" glyph-name="shopping-basket-add" d="M735.829-64c-158.805 0-288 129.195-288 288s129.195 288 288 288 288-129.195 288-288-129.195-288-288-288zM735.829 448c-123.52 0-224-100.48-224-224s100.48-224 224-224 224 100.48 224 224-100.48 224-224 224zM735.829 64c-17.664 0-32 14.336-32 32v96h-96c-17.664 0-32 14.336-32 32s14.336 32 32 32h96v96c0 17.664 14.336 32 32 32s32-14.336 32-32v-96h96c17.664 0 32-14.336 32-32s-14.336-32-32-32h-96v-96c0-17.664-14.336-32-32-32zM183.893 192c-44.075 0.811-81.067 31.104-90.283 73.728l-91.093 383.403c-6.357 23.979-2.859 49.536 9.984 71.552 12.843 21.973 33.408 37.675 57.984 44.203 6.869 1.792 13.952 2.859 21.077 3.115h54.997l182.656 182.613c6.016 6.059 14.080 9.387 22.613 9.387s16.597-3.328 22.613-9.387c6.059-6.016 9.387-14.080 9.387-22.613s-3.328-16.597-9.387-22.613l-137.387-137.387h485.461l-137.344 137.301c-12.459 12.459-12.459 32.768 0 45.269 6.059 6.059 14.080 9.387 22.613 9.387s16.555-3.328 22.613-9.344l182.656-182.613h53.931c26.24-0.896 49.963-11.691 67.413-30.336s26.539-42.923 25.643-68.395c-0.256-7.083-1.323-14.165-3.115-20.992l-12.587-52.779c-3.456-14.464-16.256-24.576-31.147-24.576-2.475 0-4.949 0.299-7.381 0.853-8.363 2.005-15.403 7.083-19.883 14.379s-5.845 15.872-3.883 24.192l12.8 53.589c0.811 2.944 1.152 5.248 1.237 7.637 0.597 17.28-12.971 31.829-30.251 32.427h-773.163c-1.323-0.043-3.669-0.427-5.803-1.024-16.725-4.395-26.709-21.589-22.272-38.272l91.435-384.811c3.029-13.952 14.677-23.637 28.459-23.893h151.339c17.664 0 32-14.336 32-32s-14.336-32-32-32h-151.936z" />
<glyph unicode="&#xe939;" glyph-name="stack-21" d="M170.667 149.333v547.317c-49.707-17.504-85.333-64.864-85.333-120.651v-426.667c0-70.72 57.28-128 128-128h426.667c55.787 0 103.147 35.627 120.651 85.333h-547.317c-23.573 0-42.667 19.093-42.667 42.667zM810.667 874.667h-426.667c-70.72 0-128-57.28-128-128v-426.667c0-70.72 57.28-128 128-128h426.667c70.72 0 128 57.28 128 128v426.667c0 70.72-57.28 128-128 128zM853.333 320c0-23.573-19.093-42.667-42.667-42.667h-426.667c-23.573 0-42.667 19.093-42.667 42.667v426.667c0 23.573 19.093 42.667 42.667 42.667h426.667c23.573 0 42.667-19.093 42.667-42.667v-426.667z" />
<glyph unicode="&#xe93a;" glyph-name="stack-2" d="M170.667 149.333v547.317c-49.707-17.504-85.333-64.864-85.333-120.651v-426.667c0-70.72 57.28-128 128-128h426.667c55.787 0 103.147 35.627 120.651 85.333h-547.317c-23.573 0-42.667 19.093-42.667 42.667zM810.667 874.667h-426.667c-70.72 0-128-57.28-128-128v-426.667c0-70.72 57.28-128 128-128h426.667c70.72 0 128 57.28 128 128v426.667c0 70.72-57.28 128-128 128zM853.333 320c0-23.573-19.093-42.667-42.667-42.667h-426.667c-23.573 0-42.667 19.093-42.667 42.667v426.667c0 23.573 19.093 42.667 42.667 42.667h426.667c23.573 0 42.667-19.093 42.667-42.667v-426.667z" />
</font>
</defs>
</svg>
